<?xml version="1.0" encoding="utf-8"?>
<!-- Generator: Adobe Illustrator 18.1.0, SVG Export Plug-In . SVG Version: 6.00 Build 0)  -->
<svg version="1.1" id="Layer_1" xmlns="http://www.w3.org/2000/svg" xmlns:xlink="http://www.w3.org/1999/xlink" x="0px" y="0px"
	 viewBox="0 0 144.8 160.2" enable-background="new 0 0 144.8 160.2" xml:space="preserve">
<g>
	<path fill="#666766" d="M116.7,32.8c0.6,4.2,6.9,9.8,8.6,9.7c1.1,0,1.6-5.5,1.6-9.7c0-2.4,0.1-4.3-1.1-4.8
		C123.7,32.1,118.4,32.9,116.7,32.8L116.7,32.8z M117,30.9c4.6,0,8.8-3.7,8.8-6.9c0-1.5-0.7-2.7-2.5-3c0.3,0.4,0.4,0.7,0.4,1.4
		c0,2.4-3.7,5.1-7.7,5.1c-1.5,0-1.9,1-1.9,1.5C114.1,30.4,115.3,30.9,117,30.9L117,30.9z M116,25.9c-0.6,0-1.5,0-2-1
		c-0.4-0.8-0.3-2.1-1-2.6c0.8,0.2,1.5,0.2,2.2,0.2c2,0,3.9-1.4,5.3-1.4c1,0,1.3,0.6,1.3,1.2C121.8,24.3,117.9,25.9,116,25.9
		L116,25.9z M17.4,60.5c1.5,0,1.2-9.2,3.6-9.2c0.6,0,0.8,0.6,0.8,1.3c0,2.1-1,5.1-1,6.8c0,0.8,0.2,1.1,0.6,1.1
		c1.1,0,2.9-10.1,4.7-10.1c0.6,0,0.8,0.6,0.8,1.1c0,2.1-2.7,8.2-2.7,9.9c0,0.3,0.1,0.5,0.3,0.5c1.1,0,3.3-4.8,4-7.1
		c0.4-1.2,0.9-1.9,1.4-1.9c0.4,0,0.8,0.5,0.8,1.5c0,2.4-2.2,8-4.1,11.7c-1.5,2.9-3.8,7.1-3.8,9.4c0,1.2,0.2,2.4,1.9,3.9
		c-2.8-0.2-4-0.4-5-2.6c-4.7,9.4,8.7,8.5,4.1,16.8c-0.8-1.5-7.5-3-7.5-11.8c0-7.5,6.6-12,6.6-15.1c0-0.6-0.2-1.1-0.8-1.6
		c-1.5-1.2-1.5-2.3-2.6-2.3c-0.8,0-1.9,1.9-0.8,3.7c0.4,0.6,0.7,0.9,0.7,1.5c0,1.2-1.9,4.5-3.3,4.5c-1.4,0-2.4-3.4-2.4-8.9
		c0-4.9,1.1-9.7,2.5-9.7c0.4,0,0.5,0.3,0.5,0.6c0,0.6-0.2,1.7-0.2,3.7C16.5,60.3,17,60.5,17.4,60.5L17.4,60.5z M84.9,17.2
		c0.7,0,0.8,1.7,1,2.7c0.1,0.5,0.2,0.6,0.4,0.6c0.5,0,1.4-2,1.9-2c0.8,0,3.1,2.3,6.8,2.3c5.3,0,10.4-3.7,10.4-10.4
		c0-6.4-4.5-10.1-10.7-10.1c-3,0-5.1,1.5-6.3,1.5c-0.7,0-1.8-1.7-2.3-1.7c-0.2,0-0.4,0.4-0.4,1.2c0,0.5,0,2-0.5,2
		c-1.1,0-5.2-3-5.2-1.9c0,1,2.7,4.1,2.7,4.9c0,0.8-2.7,1.5-2.7,2.1c0,1,2.9,1.1,2.9,2.4c0,1.2-3,2.2-3,3.1c0,0.8,3,0.2,3,1.1
		c0,0.9-2.2,4-2.2,4.9c0,0.2,0,0.2,0.2,0.2C81.8,20,84.3,17.2,84.9,17.2L84.9,17.2z M28.4,82.3c0-0.9,0.6-1.7,1.5-1.8
		c0.9-0.1,1.8,0.6,1.9,1.5c0.1,0.9-0.6,1.7-1.5,1.9C29.3,83.9,28.5,83.3,28.4,82.3L28.4,82.3z M23.5,83.7c0.2,1.5,1.6,2.6,3.2,2.5
		c0.6,0,1.1-0.2,1.5-0.4c0.4,1.4,1.5,2.3,3.1,2.1c1.6-0.1,2.8-1.5,2.6-3.1c0-0.4-0.1-0.7-0.3-1l0.3,0c1.5-0.2,2.7-1.6,2.6-3.1
		c-0.2-1.6-1.6-2.7-3.1-2.6c-0.6,0.1-1.1,0.3-1.4,0.6c-0.4-1.3-1.5-2.4-3.2-2.2c-1.5,0.1-2.7,1.6-2.6,3.2c0,0.2,0.1,0.6,0.2,0.9
		l-0.3,0C24.5,80.7,23.3,82,23.5,83.7L23.5,83.7z M121.7,2.8c0,0.6,0.5,1.1,1.1,1.1c0.6,0,1.1-0.5,1.1-1.1c0-0.6-0.5-1.1-1.1-1.1
		C122.2,1.7,121.7,2.2,121.7,2.8L121.7,2.8z M97.1,44.6c0,1,0.8,1.9,1.8,1.9c1,0,1.9-0.8,1.9-1.9c0-1-0.8-1.9-1.9-1.9
		C98,42.8,97.1,43.6,97.1,44.6L97.1,44.6z M97.2,50.2c0,1.1,0.9,2.1,2.1,2.1c1.1,0,2.1-0.9,2.1-2.1c0-1.1-0.9-2.1-2.1-2.1
		C98.2,48.1,97.2,49,97.2,50.2L97.2,50.2z M90.9,53.9c0,1.7,1.4,3,3,3c1.7,0,3-1.4,3-3c0-1.7-1.4-3-3-3
		C92.3,50.9,90.9,52.3,90.9,53.9L90.9,53.9z M92.5,47.7c0,1,0.8,1.8,1.8,1.8c1,0,1.8-0.8,1.8-1.8c0-1-0.8-1.8-1.8-1.8
		C93.3,46,92.5,46.7,92.5,47.7L92.5,47.7z M86.8,51.2c0,1,0.8,1.8,1.8,1.8c1,0,1.8-0.8,1.8-1.8c0-1-0.8-1.8-1.8-1.8
		C87.5,49.5,86.8,50.3,86.8,51.2L86.8,51.2z M91.3,40.9c0,1.5,1.3,2.8,2.8,2.8c1.5,0,2.8-1.3,2.8-2.8c0-1.5-1.3-2.8-2.8-2.8
		C92.6,38.1,91.3,39.4,91.3,40.9L91.3,40.9z M94.6,35.5c0,0.9,0.8,1.7,1.7,1.7c0.9,0,1.7-0.7,1.7-1.7c0-0.9-0.8-1.7-1.7-1.7
		C95.4,33.8,94.6,34.6,94.6,35.5L94.6,35.5z M86.6,39.7c0,0.9,0.7,1.7,1.7,1.7c0.9,0,1.7-0.8,1.7-1.7c0-0.9-0.8-1.7-1.7-1.7
		C87.4,38.1,86.6,38.8,86.6,39.7L86.6,39.7z M86.4,45.5c0,1.5,1.2,2.7,2.7,2.7c1.5,0,2.7-1.2,2.7-2.7c0-1.5-1.2-2.7-2.7-2.7
		C87.6,42.8,86.4,44,86.4,45.5L86.4,45.5z M80.8,48.3c0,1.4,1.1,2.5,2.5,2.5c1.4,0,2.5-1.1,2.5-2.5c0-1.4-1.1-2.5-2.5-2.5
		C82,45.8,80.8,46.9,80.8,48.3L80.8,48.3z M82.3,42.1c0,1,0.8,1.8,1.8,1.8c1,0,1.8-0.8,1.8-1.8c0-1-0.8-1.8-1.8-1.8
		C83.1,40.3,82.3,41.1,82.3,42.1L82.3,42.1z M76.5,107.1c0,1,0.8,1.8,1.8,1.8c1,0,1.8-0.8,1.8-1.8c0-1-0.8-1.8-1.8-1.8
		C77.3,105.3,76.5,106.1,76.5,107.1L76.5,107.1z M29,34c0,1,0.8,1.8,1.8,1.8c1,0,1.8-0.8,1.8-1.8c0-1-0.8-1.8-1.8-1.8
		C29.8,32.2,29,33,29,34L29,34z M26.7,30c0,1,0.8,1.8,1.8,1.8c1,0,1.8-0.8,1.8-1.8c0-1-0.8-1.8-1.8-1.8C27.5,28.3,26.7,29.1,26.7,30
		L26.7,30z M28.6,73.4c1.9,0,3.4-1.4,3.4-4.4v-4.5c0-1.7,0.1-3.7,1.3-5c-0.1,0.6-0.1,1.2-0.1,1.8c0,3.8,2.1,6.4,2.1,10.1
		c0,1.4-0.4,2.1-1.5,2.1c-1,0-0.9-0.9-1.1-0.9c-0.2,0-0.4,0.6-0.4,1.2c0,0.9,0.7,2.4,2.5,2.4c1.6,0,2.9-1.5,2.9-3.1
		c0-4-3.1-8.4-3.1-12.6c0-1.9,0.5-3.1,0.9-4.1c0,8.8,7.5,15.2,7.5,18.8c0,0.8-0.6,1.5-1.5,1.5c-1,0-1.5-0.8-1.5-1.4
		c0-0.3,0-0.4-0.2-0.4c-0.3,0-1.1,0.9-1.1,2c0,1.5,1.2,3.2,3.4,3.2c2.5,0,3.9-2.1,3.9-4c0-4.6-9-11.6-9-19.1c0-1.3,0.2-3.4,1.1-4.9
		c-5.8,3.7-7.6,8.7-7.6,13.1c0,3.8-0.1,5.7-2.1,5.7c-1,0-1.3-0.9-1.6-0.9c-0.3,0-0.4,0.8-0.4,1C26.3,72.5,27.4,73.4,28.6,73.4
		L28.6,73.4z M105.1,29.4c1.9,0,3.4-0.9,3.4-1.4c0-0.2-0.3-0.3-0.8-0.3c-0.6,0-1.7,0-3.9-0.4c-1.9-0.3-3.3-1-3.8-1
		c-0.2,0-0.3,0.1-0.3,0.2C99.7,27.6,101.8,29.4,105.1,29.4L105.1,29.4z M95.4,23.8c0.6-0.4,3,0.2,6.3-1.4c0.4-0.2,0.8-0.3,1.1-0.3
		c1.5,0,1.1,1.8,2.6,1.8c1.1,0,2.5-0.9,3.4-0.9c1.3,0,3.2,4.1,3.2,6.1c0,2.2-3.4,3.6-7.4,3.6c-5.9,0-9.4-5.1-9.4-8.4
		C95.2,23.9,95.3,23.9,95.4,23.8L95.4,23.8z M29.6,90c-1.5,0.4-3.8,2.6-3.8,6.3c0,4.3,4.6,11,12.3,11c6.4,0,8-4.5,8-7.5
		c0-6.7-4.1-11.3-9.4-11.3c-2.9,0-5.5,2.1-5.5,5.2c0,2.9,2.2,7.3,7.5,7.3c2.5,0,3.9-1.8,3.9-3.8c0-2-1.8-4.7-4.5-4.7
		c-0.8,0-1.4,0.5-1.4,1.4c0,1.1,1.5,2.1,3.3,2.1c0.4,0,0.8-0.1,1-0.2C41,96,41,96.2,41,96.4c0,1-1,1.6-2.5,1.6
		c-2.3,0-4.4-1.7-4.4-4.3c0-1.6,1.4-2.7,3.4-2.7c3.9,0,6.3,3.5,6.3,7c0,3.1-1.7,4.9-5.2,4.9C31.5,102.8,28,96.5,29.6,90L29.6,90z
		 M25.1,42.1c-1,0.3-3.1,1.5-3.1,3.7c0,1.6,1.2,2.6,2.8,2.6c0.8,0,1.4-0.2,1.7-0.4c-1.2-1.2-1.7-2.5-1.7-3.8
		C24.8,43.2,25,42.6,25.1,42.1L25.1,42.1z M14.3,42.7c0,0.2,0,0.4,0,0.7c0,2.1,1.1,3.2,2.6,3.2c1.1,0,2.4-0.7,3.5-2.1
		c-0.5,0.1-1.1,0.1-1.6,0.1C17.2,44.6,15.4,44.2,14.3,42.7L14.3,42.7z M12.8,46.7c0,3.4,1,4.9,2.8,4.9c1.4,0,3.3-1,5.6-3
		c-1.7,0.4-3,0.7-4.2,0.7C15.4,49.3,14.1,48.7,12.8,46.7L12.8,46.7z M79.9,115.9c2.1,0,2-0.2,2.6-0.2c0.7,0,0.7,0.4,0.7,0.7
		c0,1-2.2,2.2-6,2.2c-2.3,0-3.6-1.2-4-2.5c-2.2,1.4-5.6,2.7-8.9,2.7c-9,0-11.3-3.9-14.2-5.2c-2.2-1-5.5,0.9-10.1-4.2
		c0.6,0.1,1.5,0.2,2.1,0.2c4.1,0,6.2-2,6.2-5.2c0-0.4,0-0.8-0.1-1.2c1.2,0.5,4.1,2.6,4.7,6.3c0.1,0.4,1.9,0.8,3,0.8
		c1.6,0,3.6-0.7,3.9-3.3c5.3-0.4,8.9-3.6,9.6-7.5c1.9,0.6,4.1,2.3,4.6,3.2c0.7-0.3,1.6-0.4,2.6-0.4c1.4,0,3,0.3,4.9,0.8
		c0.1-0.6,0.2-1.3,1.1-1.3c1.3,0,1,1.5,1.4,2.3c0.2,0.4,1.3,0.7,1.3,1.6c0,0.8-0.7,1.1-1.1,1.1c-0.2,0-0.4,0-0.5-0.1
		c-0.9,0.3-0.9,6.7-4.6,6.7c-2.7,0-5.2-2.2-6.3-5.1c-0.3-0.8-1-1.4-1.6-1.4c-0.7,0-1.1,0.1-1.9,1.1c-2.4,2.6-6.3,4.9-11.2,4.9
		c-1.5,0-2.7-0.1-3-0.1c-0.2,0-0.2,0-0.2,0.1c0,0.3,1.5,1.5,4.8,1.5c7.8,0,9.7-4.4,10.9-4.4c0.2,0,0.7,0,1,0.7
		C73.5,114.9,77.4,115.9,79.9,115.9L79.9,115.9L79.9,115.9z M54.9,27.3c2.9,0,4.2,2.5,4.2,5.3c0,1.2-0.4,3-0.9,3
		c-0.6,0-0.5-1-0.6-1.9c-0.1-1.2-0.3-1.5-0.7-1.5c-0.8,0-1.2,1.8-1.2,3.4c0,1,0.2,2.2,1,2.2c0.4,0,0.8-0.2,1.1-0.5
		c-0.2,2-1.7,3.8-3.8,3.8c-3.9,0-5.3-4.5-5.8-7.2c-2.3,2.5-4.5,4.3-8.4,4.3c-3.6,0-5.2-2.6-5.2-5.2c0-0.8,0.3-2.7,1.2-2.7
		c1.1,0,0.1,3.6,2.3,3.6c0.5,0,1.5-0.4,2-1.9c0.3-0.9,0.5-1.8,0.5-2.6c0-1.2-0.3-1.9-1.1-1.9c-0.8,0-1.7,0.6-2,0.9
		c1.1-3.2,3.6-4.8,6.4-4.8c3.5,0,5.3,3.1,5.3,6.5c0,0.5,0,1-0.1,1.5C50.6,29.1,52.6,27.3,54.9,27.3L54.9,27.3z M43.8,1
		c0-0.3-1.3-0.5-3.1-0.5c-2.9,0-2.5,2.4-4.7,2.4c-2.3,0-1.7-2.5-4.6-2.5c-1.8,0-3.4,0.3-3.4,0.7C28,1.6,30,1.4,30,2.8
		c0,1.5-4.5,2-4.5,2.9c0,0.3,0.4,0.4,0.8,0.4c1,0,2.5-0.4,3.6-0.4c0.6,0,1.2,0.1,1.2,0.7c0,1.1-2.4,3.1-2.4,4c0,0.3,0.2,0.4,0.4,0.4
		c0.9,0,2.4-2.3,3.8-2.3c2.3,0,0.8,5,2.1,5c1.3,0,0.7-4.9,2.6-4.9c1.5,0,2.7,3.4,3.7,3.4c0.3,0,0.5-0.2,0.5-0.5
		c0-0.9-1.3-2.8-1.3-4.1c0-0.8,0.5-1.1,1.2-1.1c1,0,2.4,0.6,3.1,0.6c0.3,0,0.5-0.1,0.5-0.4c0-1.1-3.9-2.2-3.9-3.6
		C41.6,1.6,43.8,1.6,43.8,1L43.8,1z M106.6,87.8c-0.9,0-6,6.8-9.3,6.8c-0.8,0-1.5-1.5-1.5-2.6c0-0.6,0.4-1.1,1.8-1.4
		c7.6-1.7,5.9-7.4,12.4-7.4c3.6,0,7.5,2.4,7.5,7.9c0,5.8-8.3,13.1-9.5,13.1c-1,0-2.1-1.5-2.1-2.4c0-0.3,0.1-0.7,1-1.1
		c4.2-1.7,6.7-5.6,6.7-7.5c0-0.4-0.2-0.9-0.8-0.9c-0.8,0-4,7.3-7.5,7.3c-2.5,0-5-2.2-5-3.3c0-1.8,7.1-5,7.1-7.5
		C107.4,87.8,107,87.8,106.6,87.8L106.6,87.8z M111.4,85.1c-0.6,0-1.3,0.5-1.3,1.7c0,1.3,1,2.2,1.6,2.4c0.3,0.2,0.8,0.4,1.3,0.4
		c1.3,0,2.3-0.4,2.3-1.4C115.3,86.7,113.3,85.1,111.4,85.1L111.4,85.1z M54.2,5.5c0,0.8,2.8,2.5,4.1,2.5c0.7,0,1-1,1-2.1
		c0-1.3-0.6-1.4-1.7-1.4C56,4.5,54.2,4.9,54.2,5.5L54.2,5.5z M58.8,14.2c0-2.6-7.2-7.5-7.2-9.5c0-0.1,0-0.1,0-0.2
		C52.1,3,58.1,2,58.1,0.8c0-0.6-1.1-0.6-1.6-0.6c-4.1,0-10.1,1.5-10.1,3c0,1.5,5.4,5.2,5.4,7c0,0.5-0.3,0.7-0.8,0.7
		c-1.5,0-4.8-1.8-6.3-1.8c-0.7,0-1,0.5-1,1.2c0,2.1,2.5,6.1,2.5,7.3c0,0.1,0,0.3-0.2,0.3c-0.8,0-4.5-4.4-5.9-4.4
		c-0.5,0-0.5,0.7-0.5,1.6v1.5c0,1,0,1.6-0.5,1.6c-1.1,0-1.7-3.2-2.8-3.2c-1.1,0-1.4,5.7-2.5,5.7c-1.3,0-0.2-6.3-1.4-6.3
		c-1.4,0-2.9,4.2-3.9,4.2c-0.4,0-0.4-0.4-0.4-0.7c0-1.3,0.8-3.3,0.8-4.6c0-0.6-0.2-1-0.7-1c-1.4,0-4.4,2.2-5.5,2.2
		c-0.2,0-0.4-0.1-0.4-0.3c0-1.1,4.8-4.4,4.8-5.9c0-1.5-6.6-0.5-6.6-2.2c0-1.4,4.7-2.9,4.7-4.3c0-1.3-5.6-1.8-7.8-1.8
		c-2.6,0-4,0.3-4,1.1c0,1.1,5.9,1.5,5.9,2.5c0,1-6.1,3.6-6.1,5.1c0,1.3,8.6,0.1,8.6,1.5c0,1.5-7.5,8-7.5,10.1c0,0.5,0.4,0.7,0.8,0.7
		c2.3,0,8.2-4.4,9.9-4.4c0.6,0,0.6,0.7,0.6,1.3c0,1.1-0.4,2.9-0.4,4.2c0,1,0.3,1.7,1.1,1.7c1.6,0,3.1-2.8,4.2-2.8
		c1.4,0,0.6,8.2,2.7,8.2c1.8,0,2.6-8.8,3.7-8.8S39,23,40.1,23c1.3,0,0.7-4.5,2.1-4.5c1.5,0,6,5.3,7.9,5.3c0.6,0,0.8-0.5,0.8-1.1
		c0-2.3-3.3-7.6-3.3-9.3c0-0.4,0.1-0.6,0.6-0.6c1.7,0,6.7,2.4,9.1,2.4C58.3,15.2,58.8,14.8,58.8,14.2L58.8,14.2z M118.9,65
		c0.7-2.2,1.6-3.8,3-6.1c-1.5-0.7-5.3-2.3-5.3-4.9c0-3,3.8-5.4,4.6-5.4c0.4,0,0.4,0.3,0.4,0.9c0,1.6-0.8,4.1-0.8,5.5
		c0,1.2,0.8,2.4,1.5,2.4c0.8,0,2.8-2.6,2.8-5.2c0-4.7-4.1-6.1-5.4-6.1c-1.2,0-3.4,1.9-8.4,1.9c-9.5,0-11.6-9.4-11.6-13.5
		c0-0.2,0-0.2,0.1-0.2c0.2,0,1.1,1.1,4.1,1.1c1.5,0,3-0.4,5.2-0.4c5.3,0,7.6,3.7,10.9,8.3c2,1.2,6.7,3.2,6.7,8.8
		c0,4.9-5.2,7.7-6.5,13c2-0.2,3.2-3.8,5.3-3.8c1.1,0,1.5,0.8,1.5,2.2c0,1.9-1.1,4.9-3.2,6.7c0-0.2,0-0.4,0-0.7c0-1.2-0.5-3-1.9-3
		c-2.2,0-2.9,2.4-4.1,4.4c-1.3-4.5-3-8.6-6.1-11c-3.1-2.5-8.5-1.1-8.5-5.7c0-1.2,0.8-3,0.8-4.4c0-0.5-0.1-0.9-0.4-1.3
		c4.2,1.6,2.7,4.4,5.3,7.3c1.6,1.9,6.1,3.6,8.7,11.2c0-0.2,0.1-0.8,0.1-1.2c0-6.5-8.6-12.9-9.4-15.6c5,0.6,5.9,1.8,8.3,8.4
		C117.4,59.9,118.9,63.3,118.9,65L118.9,65z M24.2,29c0.2-0.7,0.4-1.6,0.4-2.6c0-2.1-1-5.3-4-5.3c-1.7,0-3,1.4-3,3
		C17.7,27.6,21.2,29,24.2,29L24.2,29z M20.5,40.1c-1.5,0-3-1.8-3-3.4c0-0.9,0.7-2,1.1-2c0.2,0,0.3,0.1,0.3,0.4c0.3,2.2,1.7,3.4,3,4
		c0.1,0.1,0.2,0.1,0.2,0.2C22.1,39.7,21.3,40.1,20.5,40.1L20.5,40.1z M25.7,36c0,0.6-0.4,1.4-1.1,1.4c-1.5,0-2.8-2.3-2.8-3.7
		c0-0.8,0.5-0.9,1.1-0.9c0.3,0,0.4,0,0.7,0.2c0.4,0.2,0.4,1.1,0.9,1.8C24.8,35.2,25.7,35.7,25.7,36L25.7,36z M24.1,31.4
		c-0.3,0-0.6,0-1,0c-1.5,0-3.4,0.3-5.1,1.4c-3.9,2.5-3.3,6.5-3.9,7.5c-0.1,0.1-0.1,0.3-0.1,0.5c0,0.4,0.4,0.8,0.8,0.8
		c0.4,0,0.6-0.1,0.8-0.1c1.1,0,2.2,0.7,4,0.7c1,0,2.2-0.3,3.7-1.1c3.2-1.6,4.4-5.5,4.4-6.2c0-0.8-0.7-0.7-1.2-1.5
		c-0.6-0.9-0.3-1.3-0.7-1.8C25.5,31.4,24.9,31.4,24.1,31.4L24.1,31.4z M28.8,38.5c-1,1.1-2,3.1-2,5.1c0,2.4,1.5,4.4,3.7,4.4
		c2.2,0,3.2-1.9,3.2-3.7C33.7,41.2,31,39.1,28.8,38.5L28.8,38.5z M19.4,30c0,0-1.3,1-2.9,1c-1.9,0-3.4-1.4-3.4-3.4
		c0-1.4,0.7-2.8,2.3-3.5c0,0.3,0,0.5,0,0.8C15.4,27.3,16.8,29.2,19.4,30L19.4,30z M97.8,55.6c0-0.9,0.8-1.6,1.7-1.6
		c1,0,1.7,0.8,1.7,1.6c0,1-0.8,1.7-1.7,1.7C98.6,57.4,97.8,56.7,97.8,55.6L97.8,55.6z M99,106.4c0.2,0,0.5,0.1,0.5,0.9
		c0,1-0.4,2.2-2,3.3c-1.1,0.7-2.6,1.4-4.8,1.4c0.4-1.1,0.6-2.2,0.6-3.2c0-0.4,0-0.6-0.1-1h0.6C97.2,107.7,98.7,106.4,99,106.4
		L99,106.4z M99.3,102c0.4-0.3,0.4-0.8,0.4-1.3v-1c0-1.3-1.9-2-4.6-2c-3.2,0-4.9,1.5-4.9,2.1v2c0,0.8,1.9,1.7,4.3,1.7
		C96.5,103.5,98.2,103,99.3,102L99.3,102z M101.6,102.5c-1.1,0.9-3.8,2.9-8.3,2.9c-2.4,0-3.4-0.7-3.8-0.7c-0.4,0-0.9,0.4-1.4,1
		c-1.1,1.2-2.4,3.5-2.4,6c0,1.8,1.4,3.5,3.9,3.5c8.2,0,14.4-5.2,14.4-9.3C104,103.5,102.6,102.5,101.6,102.5L101.6,102.5z
		 M103.2,65.4c0,1.1,0.4,2.4,1.5,2.4c0.9,0,1.7-1.4,1.7-3c0-1.8-0.3-3.1-0.3-3.8c0-0.3,0.1-0.4,0.3-0.4c0.7,0,1.3,1.9,2,1.9
		c0.8,0,2-1.5,2.5-1.5c0.1,0,0.2,0.2,0.2,0.2c0,0.7-1,2.1-1,2.7c0,0.5,2.6,0.6,2.6,1c0,0.7-2.7,0.7-4,1.2c-1.2,0.5-2,1.2-2,2.1
		c0,0.9,0.9,1.1,2.1,1.1c3,0,5-1.6,5.7-1.6c0.1,0,0.2,0.1,0.2,0.2c0,0.4-1.5,1.9-1.5,2.6c0,0.7,2.7,1.6,2.7,2.1
		c0,0.1-0.2,0.2-0.5,0.2c-0.5,0-1.2-0.1-1.8-0.1c-0.4,0-0.7,0-0.8,0.2c-0.3,0.4,0.1,2.7-0.5,2.7c-0.6,0-2.1-5.2-5.5-5.2
		c-0.5,0-0.8,0.4-0.8,1.1c0,1.8,1.7,3.8,3.4,4.8c0.7,0.5,2,1,2,1.2c0,0.5-2.8,0-2.8,0.9c0,0.8,0.4,2,0.4,2.7c0,0.2,0,0.5-0.3,0.5
		c-0.5,0-1.8-2.4-2.4-2.4c-0.5,0-1.7,1.5-2.2,1.5c-0.1,0-0.2-0.1-0.2-0.3c0-1,1.6-3.3,1.6-5.6c0-1.1-0.1-3.4-1.4-3.4
		c-1.1,0-2.2,1.7-2.8,3.4c-0.3,1-0.1,4.7-0.8,4.7c-0.7,0-0.5-2.5-1.4-2.5c-0.7,0-2.1,1.2-2.6,1.2c-0.1,0-0.2,0-0.2-0.1
		c0-0.5,1.3-2.2,1.3-2.6c0-0.7-2.9-0.7-2.9-1.3c0-0.3,1.1-0.5,2.2-0.7c2.2-0.4,5.6-2,5.6-4.3c0-2.6-2.5-3.7-4.1-4.7
		c-0.8-0.5-1.8-1-1.8-1.3c0-0.4,1.1-0.4,1.5-0.4c0.7,0,1.3,0,1.3-0.6c0-0.4-0.1-1.2-0.1-1.8c0-0.4,0-0.8,0.2-0.8
		c0.7,0,1.6,2.2,2,2.2c0.7,0,1.7-1.8,2.3-1.8c0.2,0,0.3,0.1,0.3,0.5C104,62,103.2,63.8,103.2,65.4L103.2,65.4z M82.1,52.5
		c0.5,3.7,5.5,1.8,5.5,6.4c0,0.7-0.2,1.6-0.2,2.5c0,1,0.1,1.8,0.8,1.8c0.8,0,0.9-0.5,0.9-1.2c0-0.7-0.2-1.6-0.2-2.1
		c0-1.5,1.1-1.9,1.8-1.9c1.7,0,3,1.7,5.5,1.7c-0.6,2.8-6.4,2.1-6.4,5.2c0,1.5,1.5,1.9,2.6,1.9c0.9,0,1.2-0.1,1.2-0.9
		c0-0.4-0.1-0.9-0.1-1.2c0-0.2,0.1-0.4,0.4-0.4c1,0,5.7,3.6,5.7,4.7c0,1-5,2-6.5,2c-0.4,0-0.5-0.3-0.5-0.5c0-0.3,0.7-1.2,0.7-1.8
		c0-0.4-0.7-0.7-2.4-0.7c-0.8,0-1.5,0.1-1.5,0.8c0,1.2,1.9,2.6,1.9,3.7c0,0.9-0.5,1.4-1.9,1.4c-1.2,0-3-0.9-3-2.5
		c0-1.2,1.3-2.5,1.3-3.2c0-0.2-0.2-0.6-0.7-0.6c-1.6,0-2.1,4.3-7.9,4.8c0.9-0.8,1.7-1.8,1.7-3.7c0-0.9-0.2-1.7-0.2-2.7
		c0-1.3,0.6-2,1.5-2c1.6,0,2.4,2.3,3.5,2.3c0.6,0,1.2-0.5,1.2-1.3c0-3.4-6.4-2.9-6.4-7.6C80.5,56.3,80.9,54.7,82.1,52.5L82.1,52.5z
		 M90.5,81.1c0,0.6,0.4,1.1,1.1,1.1c0.7,0,1.1-0.6,1.1-1.3c0-0.9-0.8-2.2-1.6-2.2c-0.4,0-0.2,0.5-0.3,1.1
		C90.7,80.3,90.5,80.8,90.5,81.1L90.5,81.1z M88.2,75.3c4.6,0.9,7.1,4.4,7.1,7.6c0,2.2-1.4,4.3-3.9,4.3c-2.2,0-3.9-1.5-3.9-4
		c0-1.9,1.5-3.8,1.5-5.7C89,76.8,88.8,76,88.2,75.3L88.2,75.3z M82.3,82.8c0.4,0.4,0.6,0.9,0.6,1.3c0,0.7-0.3,1.4-0.3,2.1
		c0,1.1,0.8,2,1.9,2c1.2,0,2.1-1,2.1-2.1C86.6,84.4,84.9,82.8,82.3,82.8L82.3,82.8z M96.9,79.9c0.3,0.5,0.4,1,0.4,1.4
		c0,1.2-0.8,2.4-0.8,3.7c0,1.5,1.1,2.6,2.8,2.6c1.8,0,3-1.5,3-3.2C102.4,82.2,100.2,80.2,96.9,79.9L96.9,79.9z M83.4,77.6
		c2,0.3,2.5,1,2.5,1.5c0,1-0.9,1.3-1.7,1.3c-0.6,0-1.3-0.1-2.1-0.1c-1,0-1.9,0.2-2.7,1.1c0.6,0.1,1.4,0.5,1.4,1.4
		c0,2.6-7.1,0.4-7.1,7c0,3.5,3.6,7.3,9.1,7.3c2.8,0,4.6-0.9,4.6-2c0-0.8-1.5-0.3-1.5-1c0-0.3,0.5-0.9,0.5-1.4c0-0.2-0.2-0.6-0.5-0.6
		c-0.8,0-2.3,1.3-5.3,1.3c-2.4,0-4.7-1.4-4.7-3.2c0-0.4,0.2-0.6,0.4-0.6c0.3,0,0.6,0.2,0.9,0.2c0.3,0,0.3-0.2,0.3-0.7
		c0-0.5,0-1.9,0.8-1.9c0.8,0,2.4,3.1,8.5,3.1c2,0,6-0.4,7.4-1.7c0,4.9-3.8,11.2-11.8,11.2c-8.2,0-12.7-6.6-12.7-12.7
		c0-6.7,5.5-12.9,13.1-12.9c1.9,0,3.6,0.7,3.6,1.5C86.5,76.9,83.6,76.2,83.4,77.6L83.4,77.6z M51.5,32.5c0-0.8-0.2-0.9-0.4-0.9
		c-0.4,0-0.9,0.5-1.6,1.7c0.1,1.6,0.4,2.3,0.8,2.3C50.8,35.5,51.5,34,51.5,32.5L51.5,32.5z M45.4,34.3c0.5,0,1.1-0.5,2.2-1.8
		c0.1-0.6,0.1-1.1,0.1-1.8c0-0.9-0.4-1.9-0.9-1.9c-1.3,0-2,3.5-2,4.5C44.9,33.8,45.2,34.3,45.4,34.3L45.4,34.3z M52.6,38.2
		c1.1,0,2.3-4.2,2.3-6.9c0-0.6-0.1-1.2-0.4-1.2c-0.9,0-2.5,4.4-2.5,6.7C52.1,37.8,52.4,38.2,52.6,38.2L52.6,38.2z M41.8,35.8
		c1.5,0,3.2-8.1,3.2-9.5c0-0.4-0.1-0.6-0.4-0.6c-1.4,0-3.3,7.7-3.3,9.4C41.3,35.4,41.4,35.8,41.8,35.8L41.8,35.8z M46.6,39.1
		c-1.9,0-2,2.3-2,6.9c-1.4-3-3.7-6.3-6.5-6.3c-1.9,0-2.6,1.2-2.6,3.4c0,0.4,0,1.1,0.1,1.5c0.2-0.7,0.9-1.1,1.8-1.1
		c1.9,0,4.2,1.5,5.7,3.4c-1.7-0.3-3.4-0.6-4.8-0.6c-0.9,0-1.7,0.1-2.3,0.4c-1.3,0.6-3,2.5-3,5.3c0,0.4,0,0.9,0.1,1.5
		c1.5-3.4,5.6-5,8.3-5c0.5,0,0.9,0,1.2,0.1c-1.4,1.2-1.7,3.4-1.8,4.8c0,0.7-0.3,0.8-0.8,0.8c0,1.5,1.1,3.6,1.1,4.7
		c0,0.4-0.2,0.7-0.4,0.8c0,1.9,1.9,3.4,1.9,4.6c0,0.3-0.1,0.6-0.2,0.7c0.1,0.8,2.3,2.2,2.5,2.7c0.4,0.9,0.8,1,1,1
		c0.7,0,1.9-0.9,1.9-1.7c0-0.3-0.2-0.6-0.4-0.7c-0.8-0.6-1.3-1.9-1.6-2.8c-0.3,0-0.7-0.2-0.8-0.6c-0.2-0.6-0.3-2.6-0.6-3.7
		c-0.6-0.1-0.8-0.4-0.8-1.5c0-0.6,0.4-2.8,0.4-3.6c-0.3,0-0.6-0.2-0.6-0.7c0-1.4,1.4-2.5,1.8-4.3c2.5,1.9,3.1,3.7,3.1,5.4
		c0,0.9-0.1,1.7-0.3,2.5c1.9-0.9,4.6-2.3,4.6-5.1c0-1.6-0.7-3.4-5.7-4.1c1.5-0.6,3.5-0.9,5.1-0.9c2.8,0,4.5,0.9,4.8,2.9
		c0.6-0.9,1-1.9,1-2.8c0-2.2-1.8-3.6-4.1-3.6c-2.7,0-5.1,1.4-7.6,3.1c1.1-2.4,1.9-3.8,3.4-3.8c0.2,0,0.4,0,0.7,0.1
		C49.7,41,47.7,39.1,46.6,39.1L46.6,39.1z M18.5,11.6c0,0.9-3.4,3.8-4.5,3.8c-0.4,0-0.6-0.5-0.6-1c0-0.9,0.4-2.1,0.9-2.5
		c0.6-0.5,1.9-0.8,2.9-0.8C17.8,11.2,18.5,11.3,18.5,11.6L18.5,11.6z M120.9,70.9c2.2,0,4,2.9,4,6.2c0,3.6-1.7,7.5-4.7,10.1
		c0-6-7.3-4.1-7.3-8.4c0-1.9,1.3-3.1,2.9-3.1c1.4,0,2.5,0.4,3.3,1.2c-0.8-0.7-1.2-1.8-1.2-2.8C117.9,72.5,119,70.9,120.9,70.9
		L120.9,70.9z M88.2,25.8c-0.4-0.6-1.7-0.9-2.3-0.9c-1.9,0-3.3,1.4-3.5,2.6c-0.2-0.4-0.3-1-0.3-1.5c0-1.9,1.3-4.3,4.5-4.3
		c2.8,0,3.9,1.5,4.3,1.5c0.4,0,0.9-0.4,1.2-0.4c0.5,0,0.5,0.7,0.5,1.3c0,1.8-0.8,4.8-2.8,5.9c-0.4-0.8-1.1-1.6-2.2-2.1
		c-0.3-0.1-0.4-0.4-0.4-0.7C87.2,26.7,87.7,26.1,88.2,25.8L88.2,25.8z M81.5,29c1.1,1.1,2.2,1.6,3.4,1.6c0.5,0,1.1-0.1,1.4-0.1
		c0.4,0,0.7,0.2,0.7,0.5c0,0.5-0.4,1.3-1,1.7c0.5,0.2,1.1,0.3,1.7,0.3c2.5,0,5.4-1.6,5.4-5.6c0.5,0.7,0.8,2.2,0.8,2.8
		c0,4.8-3.5,6.7-6.8,6.7c-2.1,0-3.2-0.7-3.4-0.7c-0.8,0-0.8,1.7-1.4,1.6c-1-0.2-1.9-2.4-1.9-4.8C80.4,31.6,80.8,30.1,81.5,29
		L81.5,29z M50.9,16.2c0,1.5,5.5,9.1,6.6,9.1c0.9,0,1.5-1.5,1.5-2.9c0-0.4-0.1-0.7-0.3-1c-0.8-1.1-6.4-5.5-7.6-5.5
		C51,15.9,50.9,16.1,50.9,16.2L50.9,16.2z M114.5,12.6c0-3.1-7.5-3.9-7.5-4.6c0-0.6,4.2-1.5,6.3-1.6c-3.3-4.2-8-3.8-8-4.5
		c0-0.4,3.5-1.3,6.8-1.3c2.7,0,5.3,0.6,5.3,2.7c0,1.1-0.9,2.3-0.9,4.1c0,1,0.5,1.8,1.8,1.8c1.4,0,1.7-1.5,1.7-3
		c0-1.3-0.2-2.2-0.2-2.9c0-1.9,1.3-3.1,3.1-3.1c1.5,0,1.9,0.7,4.1,0.7c-1.2,0.7-1.6,2-1.6,2.6c0,1.9,1.2,3.1,1.2,6.9
		c0,7-6.5,9.4-14.5,9.4c-2.2,0-4.5-0.2-6.8-0.5c-0.4,0-0.4-0.1-0.4-0.4c0-0.6,3.1-0.9,3.1-3.7c0-1.1-0.4-2.2-0.4-2.6
		c0-0.2,0.2-0.4,0.4-0.4c0.7,0,2,2.6,4.5,2.6C112.9,14.8,114.5,14.6,114.5,12.6L114.5,12.6z M122,8.1c0,3.9-2.9,6.9-8,7.8
		c0.6,0,1.1,0,1.6,0c6,0,8.2-2.7,8.2-5C123.8,9.6,123.1,8.5,122,8.1L122,8.1z M117.8,43.6c0-0.9-2.3-1-2.6-3.6
		c0-0.4-0.2-1.1-0.7-1.1c-0.8,0-0.2,2.4-1.1,2.4c-2,0-2.7-4-3.4-4c-0.2,0-0.4,0.1-0.4,0.7c0,0.5,0.1,0.8,0.1,1.4c0,0.6-0.1,1-0.7,1
		c-1.2,0-2.3-2.8-3.3-2.8c-0.2,0-0.4,0.1-0.4,0.4c0,0.5,0.9,1.5,0.9,2c0,1.1-2.9,0.5-2.9,1.4c0,0.4,0.4,0.5,0.9,0.5
		c0.9,0,2.4-0.4,3.1-0.4c0.4,0,1.1,0.1,1.1,0.7c0,0.6-1.6,1.4-1.6,2c0,0.3,0.3,0.4,0.5,0.4c1.2,0,3.3-2.1,4.8-2.1
		c0.3,0,0.9,0.1,0.9,0.5c0,0.6-1.5,1.6-1.5,2.4c0,0.2,0.1,0.5,0.4,0.5c0.8,0,1.9-2.1,3.4-2.1c0.6,0,1.4,0.2,1.9,0.2
		C117.7,43.9,117.8,43.7,117.8,43.6L117.8,43.6z M86.2,9.9c0-0.5-1.7-1.4-1.7-1.9c0-0.1,0.1-0.1,0.2-0.1c0.5,0,1.3,0.2,2,0.2
		c0.6,0,0.7-2.5,1.1-2.5c0.3,0,0.8,2.3,1.3,2.3c0.6,0,1.6-0.7,2.1-0.7c0.1,0,0.2,0,0.2,0.1c0,0.3-1.1,1.5-1.1,1.9
		c0,0.4,2.5,0.9,2.5,1.2c0,0.4-2.5,0.4-2.5,0.8c0,0.3,0.9,1.5,0.9,1.9c0,0.1,0,0.1-0.1,0.1c-0.4,0-1.7-0.6-2.1-0.6
		c-0.5,0-1.3,1.8-1.7,1.8c-0.1,0-0.2-0.2-0.2-0.4l-0.1-1.8c0-0.2-0.1-0.4-0.3-0.4c-0.5,0-1.5,0-1.9,0c-0.2,0-0.3,0-0.3-0.1
		C84.5,11.5,86.2,10.2,86.2,9.9L86.2,9.9z M94.8,18.3c-3.1,0-5.1-1.5-5.1-2.3c0-0.4,0.3-0.7,0.6-0.7c1,0,3.1,1.5,3.8,1.5
		c0.2,0,0.3-0.1,0.3-0.4c0-0.8-0.8-2.1-0.8-2.8c0-0.2,0.1-0.3,0.4-0.3c1.2,0,3,0.5,3.9,0.5c0.3,0,0.4-0.2,0.4-0.4
		c0-1-2.9-2.9-2.9-3.4c0-0.5,3.6-1.3,3.6-2.2c0-0.9-4.8-0.3-4.8-1.1c0-0.6,0.9-1.7,0.9-2.2c0-0.2-0.2-0.3-0.5-0.3
		c-0.4,0-2.5,0.8-3.4,0.8c-0.4,0-1-0.1-1-0.7c0-1,1.7-2.1,4.4-2.1c4.4,0,7,3,7,8C101.7,16.7,97.2,18.3,94.8,18.3L94.8,18.3z
		 M65,94.6c0,0.4-0.1,0.8-0.5,1.3C64,95,62.6,94.5,62,94.5c-4.5,0-2.8,6.6-7.7,6.6c-2,0-2.2-0.3-3-0.3c-0.3,0-0.5,0.1-0.5,0.4
		c0,1.1,1.6,4,6.2,4c4.5,0,8.9-2.8,8.9-6.2c0-0.6-0.1-1.2-0.4-1.8c0.2-0.3,0.6-0.4,1-0.4c0.7,0,1.1,0.8,1.8,0.8
		c0.7,0,1.2-0.5,1.2-1.2c0-0.6-0.3-1-0.8-1.2c0.4-0.3,0.6-0.7,0.6-1.2c0-0.8-0.5-1.5-1.4-1.5c-0.4,0-0.7,0.1-1,0.4
		c-0.1-0.8-0.5-1.5-1.4-1.5c-0.7,0-1.1,0.5-1.1,1.2C64.5,93.3,65,93.8,65,94.6L65,94.6z M53.1,96.3c-1.3,0-3.3-1.4-3.3-2.2
		c0-0.7,0.6-1,1.1-1c1.1,0,3.1,1.4,3.1,2.5C54,95.9,53.8,96.3,53.1,96.3L53.1,96.3z M40.8,86.4c3.5,0.9,5.3,2.8,5.6,5
		c0.4,2.2,0.8,3.9,1.6,4.8c1.1,1.2,3.3,2.3,5.2,2.3c1.6,0,2.9-0.5,2.9-2c0-1.6-2.2-5.2-5.3-5.2c-0.3,0-0.7,0-1.1,0
		c-0.4,0-1-0.1-1.3-0.4c-0.7-0.6-0.9-3.9-2.2-5.9c-1.5-2.2-3-2.8-5.2-2.8c-1.5,0-3.3,0.8-3.3,2.1C37.6,85.2,38,85.7,40.8,86.4
		L40.8,86.4z M62.9,81c0-2-4.1-2-4.1-5c0-0.8,0.5-2,1.5-3.4c0.4,2.3,1.3,3.5,3.3,4.2c3.9,1.5,4.5,3.7,4.5,6c0,4-2.8,8.9-9.9,8.9
		c-5.7,0-9.8-5.1-9.8-9.4c0-1.2,0.3-2.5,1.1-2.5c0.7,0,0.9,0.5,1.4,1.1c2,2,4.1,2.5,7.3,2.5C60.9,83.3,62.9,82.2,62.9,81L62.9,81z
		 M63.1,84.2c-1.5,0.6-2.1,0.6-2.1,2.1c0,0.6-0.1,1.3-0.1,1.7c0,0.5,0.1,0.8,0.7,0.8c1.6,0,4.1-2.7,4.1-5c0-0.6-0.4-0.9-0.7-0.9
		C64.6,83,64.2,83.7,63.1,84.2L63.1,84.2z M49.1,61.9c0-2.8,6.7-4.3,6.7-7.8c0-0.6-0.2-1.6-0.6-2.3c2.3,1.3,4.1,3.4,4.1,5.2
		c0,3-3.2,4.5-3.2,6.3c0,2.2,3.4,2.6,3.4,5.3c0,2.2-3.2,4.9-3.2,7.8c0,2.2,1.6,4.1,4,4.4c-0.8,0.2-1.5,0.3-2.2,0.3c-4.5,0-9-3.7-9-8
		c0-2.2,0.9-4.1,2.3-5.4c1.2,1.1,2.5,1.8,3.3,1.8c0.7,0,1-0.4,1-0.9C55.5,66.9,49.1,65.4,49.1,61.9L49.1,61.9z"/>
	<path fill="#666766" d="M58.1,156.3c1.2,0,3.4-0.4,5.1-3.1c-1-2.1-1.7-6.5-1.7-8c-0.5-8.1,2.6-15.6,6-15.8c2.5-0.1,4.5,2.2,4.7,6
		c0.6,10-2.7,14.2-4.4,17.8c0.3,1.4,2.7,3.8,4.9,3.8c0.8,0,1.8-0.4,2.1-0.8c-0.2-0.6-0.3-1.3-0.3-2.4c0-5.8,3.7-10.7,7-10.7
		c2.6,0,4.1,3.4,4.1,5.7c0,2.7-2.2,4.8-5.6,6.9c0.6,0.6,1.7,1,2.6,1c4.7,0,7.2-5.7,9.1-11c0.3-1,0.9-2.4,2.1-2.4
		c2,0,2.8,13.1,6.1,13.1c1.4,0,2.6-2.9,2.6-5.1c0-1.7-0.6-1.8-0.6-4.2c0-2.7,1.4-4.9,3.3-4.9c1.2,0,1.6,1.2,1.6,2.6
		c0,5.3-3.8,15.2-9.5,15.2c-4.2,0-3.9-7.3-5.4-7.3c-1.7,0-4,7.4-12.2,7.4c-1.3,0-2.7-0.7-3.9-2c-2,1.3-3.7,1.9-5.6,1.9
		c-3.1,0-4.4-3.2-5.6-3.2c-1.5,0-3.2,3.2-8.1,3.2c-4,0-4.7-5.3-6.1-5.3c-1.2,0-3.2,5.3-5.2,5.3c-3.5,0-4.2-9.2-7.3-9.2
		c-2.4,0-10,9.4-12.1,9.2c-0.8-0.1-1.2-0.7-1.1-1.5c0.1-1.1,1.1-4.2,1.5-5.7c0.7-2.5,1.3-5.3,1.6-6.2c0.3-0.9,1.3-1.5,2-1.5
		c0.4,0,0.5,0.7,0.6,1.3c0.4,2.1,1,4.2,1.7,4.2c1.2,0,5-7.4,7.3-7.4c2.7,0,3.1,11.6,6.8,11.6c1.2,0,2.2-1.5,3-3.3
		c0.1-3.1,0.9-7.5,3.4-7.5c1.7,0,2.6,3.9,1.3,7.3C53.7,155.3,56.4,156.3,58.1,156.3L58.1,156.3z M120.1,148.4c0-2.1-1.9-5-4.7-5
		c-3.7,0-7.4,4.1-7.4,9.7c0,5.1,3.2,6.7,6.3,6.7c5.5,0,8.8-4.5,10.6-8.2c0.8,2.5,1.3,8.2,3.4,8.2c0.8,0,1.4-0.4,2.4-2.7
		c2.5-5.6,4.9-12,8.2-12c1.2,0,0.5,2.2,3.5,2.2c1.4,0,2.4-1.2,2.4-2.5c0-1.9-1.7-3.4-4.4-3.4c-7.8,0-9.5,11.7-10.7,11.7
		c-2.1,0-1.4-9.4-2.9-9.4c-1.3,0-2,1.6-2.2,2.3c-1.1,4.3-4.2,10.6-8.8,10.6c-1.1,0-3-0.4-3-1.5C112.8,154.2,120.1,154,120.1,148.4
		L120.1,148.4z M69.5,137.5c-0.1-2.3-0.7-3.4-2-3.3c-1.7,0.1-2.4,5.3-2.1,10.8c0.2,3.6,0.7,4.1,1.2,4.1
		C67.6,149.1,69.8,142.7,69.5,137.5L69.5,137.5z M56,132.7c-0.1-1.3-1.2-2.2-2.6-2.2c-1.6,0-3.1,1.7-2.9,3.7c0,1.2,0.9,2.5,2.5,2.5
		C54.8,136.6,56.2,134.6,56,132.7L56,132.7z M81.8,149.6c0-1.4-0.8-2.6-1.7-2.6c-0.8,0-2.5,0.8-2.5,3.5c0,2.1,0.7,3.1,1.1,3.5
		C81.2,153.3,81.8,151.3,81.8,149.6L81.8,149.6z M114.3,146.8c1.7,0,2.2,2.1,1.8,3.3c-0.4,1.2-1.9,2.7-4.2,3.1
		C111.4,151.9,111.2,146.8,114.3,146.8L114.3,146.8z M0,148.1c-0.1-3.4,0.1-6.8,1.5-11.6c0.7-2.6,1.4-3.5,3.7-4
		c1.8-0.3,1.7,1.6,1.3,3.8c-0.9,5-1.3,7.4-1,13c0.3,6,3.1,8.3,6.1,8.3c4.5,0.1,6.5-3.7,7.3-9.1c0.7-4.3,0.2-6.4-0.3-7.7
		c-0.2-0.7-0.9-2.4-1.2-3.7c-0.3-3.2,1.2-4.6,2.4-5.1c1.5-0.4,2.1,0.3,2.7,2.1c0.8,2.7,0.8,6.1,0.6,11.1c-0.3,6.8-3.7,15-12.2,14.9
		C3.6,160.1,0.4,155.3,0,148.1L0,148.1z"/>
</g>
</svg>
